<svg xmlns="http://www.w3.org/2000/svg" viewBox="0 0 500 500"><defs><style>.cls-1{fill:#fff;}.cls-2{fill:#fefefe;}.cls-3{fill:#5e483b;}.cls-4{fill:#5f4a3c;}.cls-5{fill:#624c3f;}.cls-6{fill:#bcad90;}.cls-7{fill:#644f41;}.cls-8{fill:#cfc2a4;}.cls-9{fill:#b19f80;}.cls-10{fill:#b1a082;}.cls-11{fill:#6f5b4f;}.cls-12{fill:#eeeae4;}.cls-13{fill:#d0c6b4;}.cls-14{fill:#f9f8f8;}.cls-15{fill:#f5f0db;}.cls-16{fill:#faf9f9;}.cls-17{fill:#f5efdb;}</style></defs><title>logo</title><g id="Layer_2" data-name="Layer 2"><rect class="cls-1" y="1.11" width="498.89" height="498.89"/><path class="cls-2" d="M1.44,501.71c-2.95-1.57-1.32-4.28-1.32-6.34Q0,338.93,0,182.5,0,94.42-.09,6.34c0-4.2.85-5,5.05-5q245.22.21,490.43,0c5.18,0,5,2,5,5.79q-.13,192.36-.07,384.73c-2.81.09-5.62.24-8.43.24q-241.5,0-483-.15c-6.33,0-7.68,1.66-7.62,7.75C1.6,433.65,1.44,467.68,1.44,501.71ZM365.05,67.62l-1.4-1.4-1.41-1.41-1.41-1.41-.62-.57c.19.21.38.41.58.61l1.41,1.41,1.41,1.41,1.4,1.41,1.42,1.41,1.4,1.4c.17,1,.18,2.24,1.74,2.13a.66.66,0,0,0,.45-.44c.1-1.58-1.12-1.54-2.15-1.73-.47-.46-.94-.93-1.4-1.4S365.52,68.09,365.05,67.62ZM183.23,218.45a1.91,1.91,0,0,0,.22.48c.07.08.24.07.36.1l-.56-.6L181.84,217c-.47-2.59-.91-5.19-4.23-5.64a1.49,1.49,0,0,0-.24-.47c-.07-.08-.24-.07-.36-.1l.57.6c-.53,3.34,1.76,4.56,4.24,5.64Zm136.7-11.29,1.41-1.41c2.8-.12,2.89-2.12,2.89-4.18,1.36-1.43,2.9-2.82,1.57-5.57-2.12,1.75-1.53,3.72-1.7,5.47-2.84.19-2.8,2.24-2.75,4.29l-1.41,1.41-.33.59ZM358,160.68l.57-.62-.6.58-1.4,1.41a2.85,2.85,0,0,0-1.42,2.83l-1.4,1.41a2.82,2.82,0,0,0-1.42,2.81l-1.4,1.41a2.85,2.85,0,0,0-1.42,2.82l-1.4,1.41a2.87,2.87,0,0,0-1.41,2.81,2.55,2.55,0,0,0-2.82,2.83l-.57.6.6-.57a2.56,2.56,0,0,0,2.82-2.83,2.83,2.83,0,0,0,1.41-2.82l1.41-1.4a2.82,2.82,0,0,0,1.4-2.83l1.42-1.4a2.84,2.84,0,0,0,1.4-2.83l1.41-1.4a2.84,2.84,0,0,0,1.42-2.82ZM355.19,59.16l-.61-.57.56.62.64.57ZM174.75,205.78l.56,1.86.52-.36c-.32-.52-.68-1-1-1.54l-.56-1.86-.52.35C174.05,204.76,174.41,205.27,174.75,205.78ZM384.78,93c-.18-.62-.37-1.24-.55-1.86l-.54.36L384.75,93a2.91,2.91,0,0,0,1.41,2.83,2.31,2.31,0,0,0,.24.47c.07.08.24.07.36.1l-.57-.6A2.81,2.81,0,0,0,384.78,93ZM164.92,56.38a2.89,2.89,0,0,0,2.83-1.4c5.08-1.48,10.74-.66,15.38-3.95-5.41.19-10.92,0-15.42,3.91a2.83,2.83,0,0,0-2.81,1.42L163,56.9l.36.54Zm167.69-9.85,1.52,1,.36-.54-1.85-.55-1.54-1.06-.36.55ZM224.11,193.08l3.07-.58c-.12-.18-.2-.48-.36-.53a2.16,2.16,0,0,0-2.72,1.1l-3.06.57c.11.19.19.48.35.54A2.18,2.18,0,0,0,224.11,193.08Zm-52.17,5.65.56,1.85.53-.36L172,198.7l-.6-3.1c-.18.12-.48.2-.53.37A2.21,2.21,0,0,0,171.94,198.73Zm14.13,23.92-.59-.58.56.61c1.71,3.38,3.58,2.79,7.07,0Zm-33.86-84.52.56,1.85.53-.36-1.05-1.52c-.3-2.11.86-4.81-2.75-6.23C149.67,134.69,150.34,136.65,152.21,138.13Zm5.65,12.67.54,1.87.54-.37-1.06-1.51c-.24-2.23.94-5.17-2.81-5.65l-.55-1.86-.54.37,1.05,1.52C155.29,147.39,154.1,150.34,157.86,150.8Zm15.28-84.34c.91,2.64,2,5.2,4.13,7.13a52.4,52.4,0,0,1,6.12,19.73c1.79,17,3.51,34,5.64,51,1.27,10.1,3.14,20.15,7.72,30.63.41-1.8.77-2.45.66-3-3.5-17.79-3.08-35.91-4.68-53.86a120.37,120.37,0,0,0-10.48-40.63c-1.07-2.27-1.64-5-4.62-5.76a7.44,7.44,0,0,0-3.87-5.87c-.79-2.67.76-6.1-2.63-8C170.15,61.1,170,64.16,173.14,66.46ZM155,62c-1.89.3-4.3.78-3.36,3.18.76,1.91,3.58,1.61,4.88.52,2.25-1.88-1.31-2.25-1.47-3.65,1-.18,2.24-.12,2.13-1.68a.61.61,0,0,0-.44-.44C155.23,59.78,155.19,60.94,155,62ZM263.57,183.21c2.67,8.76-5.72,4.06-9.67,7.44,7.09-1.59,12.38,1.77,18.19.3-4.89-.52-5.35-4.7-7.07-7.74l-.36-11.65c-.34-2.54-.85-5.06-1-7.61-1.08-17.08.57-34.12,1.71-51.1,1-14.84,2.67-29.68,5-44.43,1.27-8,4.79-15.36,5.85-23.35.37-.44.75-.88,1.09-1.34,0,0-.3-.26-.46-.4l-.56,1.8c-3.1,0-3.5,2.74-4.57,4.69-9.2,16.81-12.65,35.12-13.68,54-1.25,22.8,1.9,45.34,4.27,67.93Q262.93,177.47,263.57,183.21ZM142.36,81.73c-4.84,8.83-3,17.78-.68,26.75-2.56-9,.59-17.82.69-26.74L145,83.16c8.46,10.9,12.85,23.52,15.77,36.81,4.55,20.75,7.75,41.85,15.52,61.79.88,3.05.83,6.78,5.74,7.55-1-3.6-.28-7.39-4.3-9.11-3.66-19.81-7.48-39.59-10.94-59.44-2.85-16.36-2.85-33.66-19.6-44.14-2.91-1.82-2.1-.12-2.87.76C142.09,78.13,142.4,80,142.36,81.73ZM338.24,191.65c-4.88,12.27-6,25.52-9.86,38.06l-1.06,1.52.54.36.55-1.86a4.53,4.53,0,0,0,2.68-3c3.07-11.54,6.3-23.06,7.18-35.06l1.05-1.52-.54-.36Zm-88.55,128c-.57-1.29-1.42-1.65-2.63-.79.54.63,1.07,1.26,1.61,1.88,9.35,7.62,14.75,7.46,18.85-1.29C261.25,322.8,255.46,321.66,249.69,319.67Zm90.25-192.23L356.8,93.66l-1.74-.85c-5.67,11.17-13.56,21.23-16,34-3.66,7.35-5.18,15.32-7.75,23l2.12.65Q336.68,138.95,339.94,127.44Zm-12,204.68c-13.22,10.37-26,8.75-38.89.84a23.34,23.34,0,0,0-12-3.53c-6.56-.09-13.07.26-16.24,7.17-3.26,7.13.61,12.66,5.22,17.65a19.43,19.43,0,0,0,5.48,4.35c10.52,5.14,21.54,8,33.3,5.44C320.74,360.48,331.5,350,327.94,332.12Zm-143.08.08c-2.69,11.76,1,21.51,9.65,27.3,13.3,8.89,43.7,7.27,54.44-9.87,6.3-10.05,2.77-18.56-9.25-20a31.06,31.06,0,0,0-20.11,4.62C207.74,341.43,196.32,342.27,184.86,332.2Zm-42.5-42.59a26,26,0,0,1,13.72-9.26,48.37,48.37,0,0,0,13.8-6.7c2.08-1.45,4.66-3.11,2.82-6.21a5.57,5.57,0,0,0-7.44-2.21q-17.59,8.55-34.87,17.73a9.39,9.39,0,0,0-5,8.72c.12,4.14,4,4.06,6.63,5.13,11.88,4.82,23.79,9.61,34.69,16.45,4.54,2.85,8.29,1.92,10.72-2.31,2.71-4.71-1.73-5.77-4.73-7.32C162.91,298.59,152,296.05,142.36,289.61Zm91.8-109c-.18-2.3-.18-4.64-.58-6.9-3.88-21.74-8-43.45-11.72-65.21C219,92.1,216.14,75.64,220,59c1.37-5.95,3.6-11.69,5.72-18.43-6.68,4.47-9.83,11-11.44,21-2.87,17.82-.94,35.49,1.52,53.11C218.91,137.36,223.53,159.63,234.16,180.59Zm103.91,84.07c-4.57-.32-6.9.87-7.74,3.6s1.85,3.52,3.47,4.61c3.35,2.24,7.23,3.27,11.13,4.07,4.15.85,8.25,1.79,11.72,4.38s5.37,4.87-.11,7.95c-7.29,4.09-14.18,8.92-21.08,13.67-2.17,1.5-5.15,3.43-3,6.78,2.31,3.69,5.14,1.56,7.88.12,8.75-4.58,16-11.19,23.95-16.94,13.4-9.75,13.42-9.77-1.08-18.46C354.87,269.46,345.73,266.68,338.07,264.66ZM210,288.46c.11,8.4,5.77,15.45,12.35,15.38,8.26-.09,12.5-5,12.38-14.49-.12-9.09-4-13-12.88-12.8C214.57,276.68,209.87,281.41,210,288.46Zm91.3,1.19c.12-7.78-5.11-13.27-12.73-13.33-7.23-.06-12.17,4.64-12.16,11.59,0,8.32,5.62,15.51,12.13,15.53C295.26,303.46,301.13,297.11,301.26,289.65Zm-97.95-32.43a7.07,7.07,0,0,0-2.21,1.28c-1,1.23.05,2.27.88,3,5.1,4.21,10.34,6.48,17.27,3.57,5.49-2.3,11.62-6.48,17.25.24,1,1.16,2.1.92,3-.11,1-1.2,0-2.12-.68-3-4.34-5.78-9.8-5-15.81-3.13-5.86,1.85-12.2,6.84-17.5-1.24C205.2,257.36,204.21,257.43,203.31,257.22ZM322.61,43c-33.39-8.5-67.13-14.72-101.7-6.56C255.38,28.38,288.77,37.78,322.61,43ZM274.7,218.07c-18.48-6.35-37.21-6.62-56.12-2.8C237.48,212.51,256.15,214.32,274.7,218.07Zm-115-61.76c1.88,7.2.75,15.2,6.13,21.46C162.51,171,163.67,162.94,159.67,156.31Zm167.51,30.41c.83-6.44,3.82-12.75,1.31-19.41C326,173.65,327.61,180.25,327.18,186.72Zm60.76-86.46q-1.6,8.33-3.2,16.67C388.32,111.82,389.64,106.28,387.94,100.26ZM232.5,191.87c6.57-.6,11.54-2.2,16.68-2.32C244,189.25,238.67,187.67,232.5,191.87Zm-30.84,27.37c4.77,1,8.51-1.23,12.4-3C209.37,215.18,205.58,217.58,201.66,219.24ZM166.8,181.86c.23,3.63.53,7.19,3.52,10.89C170.67,188,169,184.79,166.8,181.86Zm-20.63-60.92a8.25,8.25,0,0,0,3,8.38A11.77,11.77,0,0,0,146.17,120.94Zm3.25-50c-.54-.48-1-1.19-1.39-1.17a1.72,1.72,0,0,0-1.15,1.2c-.12.88.19,1.88,1.4,1.58C148.71,72.43,149,71.6,149.42,70.93ZM280.91,219.15c-.41-.22-.78-.56-1.14-.56s-.72.35-1.08.55c.36.2.72.55,1.08.56S280.5,219.36,280.91,219.15ZM327,44c-.15.1-.37.17-.42.3s.15.28.23.43l.67-.52ZM191.27,48.45c0,.15,0,.37.1.43a1.3,1.3,0,0,0,.54.12l-.15-.75Zm-3.71,2,.45-.33-.37-.4-.58.54Zm-42.7,66.46-.33-.45-.41.38.56.57Zm-1.41-4.23-.33-.45-.41.38.55.57Zm240.54,9c.15-.08.37-.13.42-.25s0-.36-.05-.54l-.66.35Zm-26.8-30.18c.15-.14.42-.27.43-.42s-.21-.34-.33-.51c-.15.14-.42.27-.44.42S357.07,91.32,357.19,91.49Z"/><path class="cls-3" d="M1.44,501.71c0-34,.16-68.06-.16-102.09-.06-6.09,1.29-7.75,7.62-7.75q241.5.31,483,.15c2.81,0,5.62-.15,8.43-.24,0,34.49-.12,69,.12,103.47,0,5-.77,6.62-6.33,6.61Q247.77,501.58,1.44,501.71ZM337.16,451a84.54,84.54,0,0,0,9-.08c6.85-.77,12.48,0,13.26,8.53.36,12,.36,11.7,12.17,11.75,5.39,0,6.8-1.8,6.42-6.95a341.05,341.05,0,0,1-.43-38c.45-12,.33-11.76-11.86-12.16-5.15-.18-6.28,1.47-6.06,6.33.66,14.71.48,14.72-14.34,14.54a5.61,5.61,0,0,0-.71,0c-6.26.8-8.56-1.44-8-8.16,1-12.57.6-12.37-11.63-12.73-4.86-.14-6.56,1.1-6.25,6.16.5,8.51,1.62,17.05.7,25.78-6.3-2.57-6.3-2.57-9.78,2.76-4.76,7.29-13,10.2-20.14,7.1-7.64-3.34-12.57-14.23-10.24-22.61,2-7.35,9.44-11.66,18.59-9.63,6.18,1.37,8.27.13,8.46-6.37.29-9.5,0-10.25-9.54-11.23a32.54,32.54,0,0,0-13.2,1.32c-15,4.68-23.34,13.7-24,27.64-.73,14.94,4,27.54,18,35.35,14.63,8.15,27.85,5.26,41-5.08-.41,4.76,1.7,6.21,5.69,5.87,4.2-.36,8.43-.31,12.64-.44,4.42-3.6,4-7.39.43-11.3ZM149.29,440.77c0,8.19.1,16.39,0,24.58-.06,3.26.33,5.34,4.42,5.24,9.13-.23,18.29.37,27.39-.22,12.69-.83,21.42-8.44,25.55-19.73,6.91-18.92-5.79-37.54-25.93-39-8.85-.64-17.79-.12-26.68-.35-3.66-.1-4.88,1.21-4.78,4.9C149.46,424.37,149.29,432.57,149.29,440.77Zm-36.14-31c-16.6-1.86-32.9,16.46-32.47,31.67.42,14.73,16,32,33.88,30.52,18.18-1.46,31-12.63,30.76-31.48C145.1,422.29,131.88,409.61,113.15,409.79Zm99.32,31h-.32c0,8,.21,15.93-.09,23.87-.16,4.16.82,5.89,5.35,5.78,10.07-.23,20.15,0,30.23.13,9.52.13,9.37.1,10.39-9.32.53-5-1.08-6.05-5.78-5.51a138.86,138.86,0,0,1-16.83.55c-3.48,0-4.62-2.23-4.64-5.63,0-4,2.51-3.81,5.16-3.74,4.68.12,9.39,0,14,.47,3.73.39,5.22-.76,5-4.5a22.89,22.89,0,0,1,.37-5.6c.71-3.86-.85-4.89-4.54-4.56-4.9.43-9.84.29-14.75.55-3.39.17-5.26-.83-5.26-4.66,0-3.65,2-4.34,4.92-4.18,4.91.27,9.82.73,14.73.7,2.46,0,7.07,2.26,6.14-3.4-.66-4.07,2.65-10.72-6.08-10.53-11,.24-22,.31-33,0-4.69-.15-5.28,1.62-5.09,5.72C212.74,424.89,212.47,432.87,212.47,440.83Zm170.73.92h-.11c0,8.2.05,16.4,0,24.6,0,2.61.15,4.49,3.6,4.5,12,0,23.92.67,35.85.21,6.75-.26,4.05-6.74,4.87-10.54,1-4.77-2.83-3.64-5.47-3.58-5.15.11-10.29.39-15.44.42-3.66,0-5.53-1.74-5.35-5.68.19-4.17,3.12-3.34,5.55-3.35,4.22,0,8.5-.32,12.64.31,4.32.65,5.39-1,5.17-4.83a18.3,18.3,0,0,1,.52-4.88c.74-3.44-.33-4.64-4-4.31-5.35.49-10.76.54-16.14.63-3.16.05-3.72-2.19-3.8-4.77-.09-2.75,1.3-3.73,3.89-3.64,5.39.19,10.78.41,16.16.41,2.19,0,6.19,1.55,5-3.07-.93-3.56,2.7-10-5-10.05-11.25-.12-22.51.1-33.75-.08-3.51-.06-4.31,1.24-4.21,4.5C383.35,426.28,383.2,434,383.2,441.75ZM58.83,410.06C47,409.43,37.66,414.6,31.5,424c-10.18,15.62-4,36.31,12.54,44.77,10.5,5.37,24.8,3.56,33.1-3.4,5.8-4.86,1.09-8-.9-11.82-2.53-4.91-4.91-2-7.65-.23-7.06,4.47-15.34,3.73-19.9-1.58-5-5.79-4.9-16.58.15-22.12,4.74-5.19,12.92-5.57,20-1,2.22,1.43,4.74,5.51,7,.42,1.8-4.07,8.16-8,1.38-13.1A28.69,28.69,0,0,0,58.83,410.06ZM431.68,445.4l-.66,0q0,10.54,0,21.1c0,2.1-.19,3.9,2.78,4.72,12.21,3.34,16.05.46,15.13-11.82-.09-1.17-.11-2.35-.27-3.5-.64-4.62.7-7.14,6-6.58,3.94.41,8-.28,11.93.34,6.25,1,6.16-2.7,6.14-7,0-4.5.28-8.61-6.47-7.63-4.37.64-8.89.26-13.34.41-3.1.1-4.14-1.74-4.22-4.4-.09-2.85,1.27-4.33,4.26-4.21,5.39.22,10.78.59,16.16.42,2.13-.07,6.83,2.36,5.78-2.78-.77-3.8,3.19-10.93-5.85-10.62-11.24.38-22.5.66-33.75.48-4.72-.08-5.4,1.75-5.06,5.8C430.94,428.54,431.23,437,431.68,445.4Z"/><path class="cls-4" d="M327.94,332.12c3.56,17.86-7.2,28.36-23.15,31.92-11.76,2.61-22.78-.3-33.3-5.44a19.43,19.43,0,0,1-5.48-4.35c-4.61-5-8.48-10.52-5.22-17.65,3.17-6.91,9.68-7.26,16.24-7.17a23.34,23.34,0,0,1,12,3.53C301.94,340.87,314.72,342.49,327.94,332.12Z"/><path class="cls-4" d="M184.86,332.2c11.46,10.07,22.88,9.23,34.73,2.05a31.06,31.06,0,0,1,20.11-4.62c12,1.44,15.55,9.95,9.25,20-10.74,17.14-41.14,18.76-54.44,9.87C185.85,353.71,182.17,344,184.86,332.2Z"/><path class="cls-5" d="M142.36,289.61c9.65,6.44,20.55,9,30.29,14,3,1.55,7.44,2.61,4.73,7.32-2.43,4.23-6.18,5.16-10.72,2.31-10.9-6.84-22.81-11.63-34.69-16.45-2.66-1.07-6.51-1-6.63-5.13a9.39,9.39,0,0,1,5-8.72q17.27-9.19,34.87-17.73a5.57,5.57,0,0,1,7.44,2.21c1.84,3.1-.74,4.76-2.82,6.21a48.37,48.37,0,0,1-13.8,6.7A26,26,0,0,0,142.36,289.61Z"/><path class="cls-6" d="M234.16,180.59c-10.63-21-15.25-43.23-18.39-65.85-2.46-17.62-4.39-35.29-1.52-53.11,1.61-10,4.76-16.55,11.44-21C223.57,47.35,221.34,53.09,220,59c-3.83,16.6-.94,33.06,1.89,49.44,3.76,21.76,7.84,43.47,11.72,65.21C234,176,234,178.29,234.16,180.59Z"/><path class="cls-7" d="M338.07,264.66c7.66,2,16.8,4.8,25.09,9.78,14.5,8.69,14.48,8.71,1.08,18.46-7.91,5.75-15.2,12.36-23.95,16.94-2.74,1.44-5.57,3.57-7.88-.12-2.1-3.35.88-5.28,3-6.78,6.9-4.75,13.79-9.58,21.08-13.67,5.48-3.08,3.66-5.3.11-7.95s-7.57-3.53-11.72-4.38c-3.9-.8-7.78-1.83-11.13-4.07-1.62-1.09-4.27-2-3.47-4.61S333.5,264.34,338.07,264.66Z"/><path class="cls-8" d="M262.3,171.74c-2.37-22.59-5.52-45.13-4.27-67.93,1-18.87,4.48-37.18,13.68-54,1.07-2,1.47-4.67,4.57-4.69l-.07-.06c-1.06,8-4.58,15.31-5.85,23.35-2.33,14.75-4,29.59-5,44.43-1.14,17-2.79,34-1.71,51.1.16,2.55.67,5.07,1,7.61Z"/><path class="cls-9" d="M176.28,181.76c-7.77-19.94-11-41-15.52-61.79-2.92-13.29-7.31-25.91-15.77-36.81q-.35-2.88-.68-5.78c.77-.88,0-2.58,2.87-.76,16.75,10.48,16.75,27.78,19.6,44.14,3.46,19.85,7.28,39.63,10.94,59.44Z"/><path class="cls-7" d="M210,288.46c-.09-7,4.61-11.78,11.85-11.91,8.88-.15,12.76,3.71,12.88,12.8.12,9.44-4.12,14.4-12.38,14.49C215.73,303.91,210.07,296.86,210,288.46Zm15.51.93c-.29-2.13-1.49-3.42-3.6-3.44a3.17,3.17,0,0,0-3.54,3.36c0,2.45,1.25,3.95,3.81,3.76C224.29,292.91,225.29,291.45,225.47,289.39Z"/><path class="cls-7" d="M301.26,289.65c-.13,7.46-6,13.81-12.76,13.79-6.51,0-12.13-7.21-12.13-15.53,0-7,4.93-11.65,12.16-11.59C296.15,276.38,301.38,281.87,301.26,289.65Zm-14.42,3.87c2.15,0,3.6-.94,3.82-3.18s-.78-3.74-2.93-4c-2.52-.38-4.09,1.09-4.27,3.5C283.3,291.93,284.68,293.19,286.84,293.52Z"/><path class="cls-10" d="M177.63,71.66c3,.76,3.55,3.49,4.62,5.76a120.37,120.37,0,0,1,10.48,40.63c1.6,18,1.18,36.07,4.68,53.86.11.56-.25,1.21-.66,3-4.58-10.48-6.45-20.53-7.72-30.63-2.13-17-3.85-34-5.64-51a52.5,52.5,0,0,0-6.12-19.74Z"/><path class="cls-11" d="M203.31,257.22c.9.21,1.89.14,2.16.55,5.3,8.08,11.64,3.09,17.5,1.24,6-1.89,11.47-2.65,15.81,3.13.67.9,1.69,1.82.68,3-.86,1-2,1.27-3,.11-5.63-6.72-11.76-2.54-17.25-.24-6.93,2.91-12.17.64-17.27-3.57-.83-.69-1.91-1.73-.88-3A7.07,7.07,0,0,1,203.31,257.22Z"/><path class="cls-12" d="M322.61,43c-33.84-5.18-67.23-14.58-101.7-6.56C255.48,28.24,289.22,34.46,322.61,43Z"/><path class="cls-12" d="M274.7,218.07c-18.55-3.75-37.22-5.56-56.12-2.8C237.49,211.45,256.22,211.72,274.7,218.07Z"/><path class="cls-6" d="M339,126.81c2.48-12.77,10.37-22.83,16-34l1.74.85-16.86,33.78A.93.93,0,0,0,339,126.81Z"/><path class="cls-11" d="M249.69,319.67c5.77,2,11.56,3.13,17.83-.2-4.1,8.75-9.5,8.91-18.85,1.29Z"/><path class="cls-12" d="M328.38,229.71c3.88-12.54,5-25.79,9.86-38.06l0,0c-.88,12-4.11,23.52-7.18,35.06a4.53,4.53,0,0,1-2.68,3Z"/><path class="cls-13" d="M339.94,127.44q-3.26,11.51-6.53,23l-2.12-.65c2.57-7.67,4.09-15.64,7.74-23A.92.92,0,0,1,339.94,127.44Z"/><path class="cls-12" d="M142.37,81.74c-.1,8.92-3.25,17.77-.69,26.74-2.33-9-4.16-17.92.68-26.75Z"/><path class="cls-12" d="M159.67,156.31c4,6.63,2.84,14.64,6.13,21.46C160.42,171.51,161.55,163.51,159.67,156.31Z"/><path class="cls-13" d="M327.18,186.72c.43-6.47-1.23-13.07,1.31-19.41C331,174,328,180.28,327.18,186.72Z"/><path class="cls-14" d="M265,183.21c1.72,3,2.18,7.22,7.07,7.74-5.81,1.47-11.1-1.89-18.19-.3,4-3.38,12.34,1.32,9.67-7.44Z"/><path class="cls-12" d="M387.94,100.26c1.7,6,.38,11.56-3.2,16.67Q386.33,108.59,387.94,100.26Z"/><path class="cls-6" d="M176.28,181.76l1.44-1.56c4,1.72,3.32,5.51,4.3,9.11C177.11,188.54,177.16,184.81,176.28,181.76Z"/><path class="cls-12" d="M167.71,54.94c4.5-3.93,10-3.72,15.42-3.91-4.64,3.29-10.3,2.47-15.38,3.95Z"/><path class="cls-14" d="M232.5,191.87c6.17-4.2,11.5-2.62,16.68-2.32C244,189.67,239.07,191.27,232.5,191.87Z"/><path class="cls-12" d="M201.66,219.24c3.92-1.66,7.71-4.06,12.4-3C210.17,218,206.43,220.25,201.66,219.24Z"/><path class="cls-12" d="M166.8,181.86c2.21,2.93,3.87,6.1,3.52,10.89C167.33,189.05,167,185.49,166.8,181.86Z"/><path class="cls-12" d="M155.08,62c.15,1.4,3.71,1.77,1.46,3.65-1.3,1.09-4.12,1.39-4.88-.52-.94-2.4,1.47-2.88,3.36-3.18Z"/><path class="cls-12" d="M265,183.21h-1.45q-.65-5.73-1.27-11.47l2.37-.18C264.78,175.44,264.9,179.33,265,183.21Z"/><path class="cls-8" d="M173.14,66.46c-3.17-2.3-3-5.36-2-8.67,3.39,1.9,1.84,5.33,2.63,8C173.56,66,173.35,66.25,173.14,66.46Z"/><path class="cls-12" d="M146.17,120.94a11.77,11.77,0,0,1,3,8.38A8.25,8.25,0,0,1,146.17,120.94Z"/><path class="cls-8" d="M177.63,71.66l-.36,1.92c-2.15-1.92-3.22-4.48-4.13-7.12.21-.21.42-.43.62-.66A7.41,7.41,0,0,1,177.63,71.66Z"/><path class="cls-12" d="M155.07,145.14c3.75.48,2.57,3.42,2.81,5.65h0c-3.76-.46-2.57-3.41-2.83-5.63Z"/><path class="cls-12" d="M181.82,217.05c-2.48-1.08-4.77-2.3-4.24-5.64l0,0c3.32.45,3.76,3.05,4.23,5.64Z"/><path class="cls-12" d="M152.21,138.13c-1.87-1.48-2.54-3.44-2.71-6.26,3.61,1.42,2.45,4.12,2.75,6.23Z"/><path class="cls-12" d="M186.07,222.65h7c-3.49,2.82-5.36,3.41-7.07,0Z"/><path class="cls-12" d="M144.31,77.38q.33,2.9.68,5.78l-2.62-1.42h0C142.4,80,142.09,78.13,144.31,77.38Z"/><path class="cls-12" d="M324.23,201.57c0,2.06-.09,4.06-2.89,4.18h0c-.05-2-.09-4.1,2.75-4.29Z"/><path class="cls-12" d="M324.1,201.47c.17-1.75-.42-3.72,1.7-5.47,1.33,2.75-.21,4.14-1.57,5.57Z"/><path class="cls-12" d="M149.42,70.93c-.45.67-.71,1.5-1.14,1.61-1.21.3-1.52-.7-1.4-1.58a1.72,1.72,0,0,1,1.15-1.2C148.43,69.74,148.88,70.45,149.42,70.93Z"/><path class="cls-12" d="M155,62c.17-1,.21-2.2,1.74-2.07a.61.61,0,0,1,.44.44c.11,1.56-1.11,1.5-2.13,1.68Z"/><path class="cls-12" d="M367.87,70.44c1,.19,2.25.15,2.15,1.73a.66.66,0,0,1-.45.44c-1.56.11-1.57-1.08-1.74-2.13Z"/><path class="cls-12" d="M346.73,177.58a2.56,2.56,0,0,1-2.82,2.83l0,0a2.55,2.55,0,0,1,2.82-2.82Z"/><path class="cls-12" d="M171.94,198.73a2.21,2.21,0,0,1-1.09-2.76c.05-.17.35-.25.53-.37l.6,3.1Z"/><path class="cls-12" d="M280.91,219.15c-.41.21-.78.55-1.14.55s-.72-.36-1.08-.56c.36-.2.72-.55,1.08-.55S280.5,218.93,280.91,219.15Z"/><path class="cls-14" d="M224.1,193.07a2.16,2.16,0,0,1,2.72-1.1c.16.05.24.35.36.53l-3.07.58Z"/><path class="cls-14" d="M224.11,193.08a2.18,2.18,0,0,1-2.72,1.1c-.16-.06-.24-.35-.35-.54l3.06-.57Z"/><path class="cls-12" d="M327,44l.48.21-.67.52c-.08-.15-.27-.33-.23-.43S326.8,44.14,327,44Z"/><path class="cls-12" d="M332.61,46.53,330.74,46l.36-.55,1.54,1.06Z"/><path class="cls-12" d="M332.64,46.49l1.85.55-.36.54-1.52-1Z"/><path class="cls-12" d="M191.27,48.45l.49-.2.15.75a1.3,1.3,0,0,1-.54-.12C191.28,48.82,191.3,48.6,191.27,48.45Z"/><path class="cls-12" d="M187.56,50.41l-.5-.19.58-.54.37.4Z"/><path class="cls-12" d="M164.9,56.36a2.83,2.83,0,0,1,2.81-1.42l0,0a2.89,2.89,0,0,1-2.83,1.4Z"/><path class="cls-12" d="M164.92,56.38l-1.52,1.06L163,56.9l1.86-.54Z"/><path class="cls-12" d="M144.86,116.87l-.18.5-.56-.57.41-.38Z"/><path class="cls-12" d="M143.45,112.64l-.19.5-.55-.57.41-.38Z"/><path class="cls-12" d="M386.16,95.85A2.91,2.91,0,0,1,384.75,93l0,0a2.81,2.81,0,0,1,1.41,2.82Z"/><path class="cls-12" d="M384.75,93l-1.06-1.52.54-.36c.18.62.37,1.24.55,1.86Z"/><path class="cls-12" d="M346.7,177.55a2.87,2.87,0,0,1,1.41-2.81l0,0a2.82,2.82,0,0,1-1.41,2.81Z"/><path class="cls-12" d="M352.33,169.1a2.82,2.82,0,0,1,1.42-2.81h0a2.84,2.84,0,0,1-1.4,2.83Z"/><path class="cls-12" d="M338.24,191.65l.54-1.86.54.36-1.05,1.52Z"/><path class="cls-12" d="M172,198.7l1.05,1.52-.53.36c-.19-.61-.37-1.23-.56-1.85Z"/><path class="cls-8" d="M276.28,45.13l.56-1.8c.16.14.47.39.46.4-.34.46-.72.9-1.09,1.34Z"/><path class="cls-12" d="M174.75,205.78c-.34-.51-.7-1-1-1.55l.52-.35.56,1.86Z"/><path class="cls-12" d="M174.81,205.74c.34.51.7,1,1,1.54l-.52.36c-.18-.62-.37-1.24-.56-1.86Z"/><path class="cls-12" d="M355.15,164.87a2.85,2.85,0,0,1,1.42-2.82l0,0a2.84,2.84,0,0,1-1.42,2.82Z"/><path class="cls-12" d="M328.41,229.73l-.55,1.86-.54-.36,1.06-1.52Z"/><path class="cls-12" d="M157.88,150.79l1.06,1.51-.54.37-.54-1.87Z"/><path class="cls-12" d="M155,145.17,154,143.65l.54-.37c.18.62.36,1.24.55,1.86Z"/><path class="cls-12" d="M152.25,138.1l1.05,1.52-.53.36c-.19-.61-.37-1.23-.56-1.85Z"/><path class="cls-12" d="M384,121.67l-.29-.44.66-.35c0,.18.11.39.05.54S384.14,121.59,384,121.67Z"/><path class="cls-11" d="M248.67,320.76l-1.61-1.88c1.21-.86,2.06-.5,2.63.79Z"/><path class="cls-12" d="M349.51,173.33a2.85,2.85,0,0,1,1.42-2.82l0,0a2.82,2.82,0,0,1-1.4,2.83Z"/><path class="cls-12" d="M355.19,59.16l.59.62-.64-.57Z"/><path class="cls-12" d="M360.79,63.44l-.58-.61.62.57Z"/><path class="cls-12" d="M360.83,63.4l1.41,1.41,0,0-1.41-1.41Z"/><path class="cls-12" d="M362.24,64.81l1.41,1.41,0,0-1.41-1.41Z"/><path class="cls-12" d="M358,160.64l.6-.58-.57.62Z"/><path class="cls-12" d="M177.58,211.41l-.57-.6c.12,0,.29,0,.36.1a1.49,1.49,0,0,1,.24.47Z"/><path class="cls-12" d="M343.91,180.41l-.6.57.57-.6Z"/><path class="cls-12" d="M353.75,166.29l1.4-1.41,0,0-1.41,1.4Z"/><path class="cls-12" d="M321.34,205.75l-1.41,1.41h0l1.41-1.41Z"/><path class="cls-12" d="M352.37,169.13l-1.42,1.4,0,0,1.4-1.41Z"/><path class="cls-12" d="M181.84,217l1.41,1.41,0,0-1.41-1.4Z"/><path class="cls-12" d="M358,160.68l-1.4,1.4,0,0,1.4-1.41Z"/><path class="cls-12" d="M348.11,174.74l1.4-1.41,0,0-1.41,1.41Z"/><path class="cls-12" d="M186,222.68l-.56-.61.59.58Z"/><path class="cls-12" d="M386.19,95.82l.57.6c-.12,0-.29,0-.36-.1a2.31,2.31,0,0,1-.24-.47Z"/><path class="cls-12" d="M319.93,207.16l-.32.6.33-.59Z"/><path class="cls-6" d="M357.19,91.49c-.12-.17-.35-.35-.34-.51s.29-.28.44-.42c.12.17.35.35.33.51S357.34,91.35,357.19,91.49Z"/><path class="cls-12" d="M365.05,67.62c.47.47.94.95,1.42,1.42l0,0c-.48-.47-.95-.94-1.42-1.42Z"/><path class="cls-12" d="M355.14,59.21l-.56-.62.61.57Z"/><path class="cls-12" d="M366.47,69c.46.47.93.94,1.4,1.4l0,0-1.4-1.4Z"/><path class="cls-12" d="M363.65,66.22c.47.47.93.94,1.4,1.4l0,0c-.47-.46-.94-.93-1.4-1.4Z"/><path class="cls-12" d="M183.25,218.43l.56.6c-.12,0-.29,0-.36-.1a1.91,1.91,0,0,1-.22-.48Z"/><path class="cls-15" d="M336.88,470.71c-4.21.13-8.44.08-12.64.44-4,.34-6.1-1.11-5.69-5.87-13.12,10.34-26.34,13.23-41,5.08-14-7.81-18.76-20.41-18-35.35.68-13.94,9.05-23,24-27.64a32.54,32.54,0,0,1,13.2-1.32c9.56,1,9.83,1.73,9.54,11.23-.19,6.5-2.28,7.74-8.46,6.37-9.15-2-16.55,2.28-18.59,9.63-2.33,8.38,2.6,19.27,10.24,22.61,7.11,3.1,15.38.19,20.14-7.1,3.48-5.33,3.48-5.33,9.78-2.76.92-8.73-.2-17.27-.7-25.78-.31-5.06,1.39-6.3,6.25-6.16,12.23.36,12.64.16,11.63,12.73-.54,6.72,1.76,9,8,8.16a5.61,5.61,0,0,1,.71,0c14.82.18,15,.17,14.34-14.54-.22-4.86.91-6.51,6.06-6.33,12.19.4,12.31.13,11.86,12.16a341.05,341.05,0,0,0,.43,38c.38,5.15-1,7-6.42,6.95-11.81-.05-11.81.23-12.17-11.75,1.41-11,1.41-11.05-9.15-11.07-3.26,0-6.53,0-9.79.11-1.65,0-3.38.13-3.33,2.51l.15,8.42Z"/><path class="cls-14" d="M149.29,440.77c0-8.2.17-16.4-.08-24.58-.1-3.69,1.12-5,4.78-4.9,8.89.23,17.83-.29,26.68.35,20.14,1.46,32.84,20.08,25.93,39-4.13,11.29-12.86,18.9-25.55,19.73-9.1.59-18.26,0-27.39.22-4.09.1-4.48-2-4.42-5.24C149.39,457.16,149.29,449,149.29,440.77Zm17.91,0h.07c0,4,0,8,0,12,0,2.36.55,3.83,3.25,4.47,7.55,1.79,15.39-1.54,18.48-8.18,3.73-8,1.59-17.88-4.94-22.21a15.87,15.87,0,0,0-14.83-1.92c-4.05,1.66-1.38,6.73-2,10.23A35.22,35.22,0,0,0,167.2,440.79Z"/><path class="cls-16" d="M113.15,409.79c18.73-.18,31.95,12.5,32.17,30.71.24,18.85-12.58,30-30.76,31.48-17.87,1.43-33.46-15.79-33.88-30.52C80.25,426.25,96.55,407.93,113.15,409.79ZM98.44,441c0,9.37,6.09,15.46,15.4,15.28,7.74-.15,14.13-7.12,14.17-15.48,0-8.53-6.17-15.23-14.12-15.24C104.8,425.52,98.49,431.83,98.44,441Z"/><path class="cls-16" d="M212.47,440.83c0-8,.27-15.94-.11-23.88-.19-4.1.4-5.87,5.09-5.72,11,.34,22,.27,33,0,8.73-.19,5.42,6.46,6.08,10.53.93,5.66-3.68,3.39-6.14,3.4-4.91,0-9.82-.43-14.73-.7-3-.16-4.91.53-4.92,4.18,0,3.83,1.87,4.83,5.26,4.66,4.91-.26,9.85-.12,14.75-.55,3.69-.33,5.25.7,4.54,4.56a22.89,22.89,0,0,0-.37,5.6c.23,3.74-1.26,4.89-5,4.5-4.64-.48-9.35-.35-14-.47-2.65-.07-5.19-.31-5.16,3.74,0,3.4,1.16,5.6,4.64,5.63a138.86,138.86,0,0,0,16.83-.55c4.7-.54,6.31.55,5.78,5.51-1,9.42-.87,9.45-10.39,9.32-10.08-.14-20.16-.36-30.23-.13-4.53.11-5.51-1.62-5.35-5.78.3-7.94.09-15.91.09-23.87Z"/><path class="cls-15" d="M383.2,441.75c0-7.73.15-15.47-.07-23.2-.1-3.26.7-4.56,4.21-4.5,11.24.18,22.5,0,33.75.08,7.73.09,4.1,6.49,5,10.05,1.2,4.62-2.8,3.08-5,3.07-5.38,0-10.77-.22-16.16-.41-2.59-.09-4,.89-3.89,3.64.08,2.58.64,4.82,3.8,4.77,5.38-.09,10.79-.14,16.14-.63,3.65-.33,4.72.87,4,4.31a18.3,18.3,0,0,0-.52,4.88c.22,3.82-.85,5.48-5.17,4.83-4.14-.63-8.42-.34-12.64-.31-2.43,0-5.36-.82-5.55,3.35-.18,3.94,1.69,5.7,5.35,5.68,5.15,0,10.29-.31,15.44-.42,2.64-.06,6.51-1.19,5.47,3.58-.82,3.8,1.88,10.28-4.87,10.54-11.93.46-23.89-.21-35.85-.21-3.45,0-3.62-1.89-3.6-4.5.08-8.2,0-16.4,0-24.6Z"/><path class="cls-16" d="M58.82,410.05A28.76,28.76,0,0,1,77.17,416c6.78,5.14.42,9-1.38,13.1-2.26,5.09-4.78,1-7-.42-7-4.54-15.21-4.16-20,1-5.05,5.54-5.13,16.33-.15,22.12,4.56,5.31,12.84,6.05,19.9,1.58,2.74-1.74,5.12-4.68,7.65.23,2,3.85,6.7,7,.9,11.82-8.3,7-22.6,8.77-33.1,3.4C27.52,460.35,21.32,439.66,31.5,424,37.66,414.6,47,409.43,58.82,410.05Z"/><path class="cls-17" d="M431.68,445.4c-.45-8.42-.74-16.86-1.43-25.26-.34-4.05.34-5.88,5.06-5.8,11.25.18,22.51-.1,33.75-.48,9-.31,5.08,6.82,5.85,10.62,1,5.14-3.65,2.71-5.78,2.78-5.38.17-10.77-.2-16.16-.42-3-.12-4.35,1.36-4.26,4.21.08,2.66,1.12,4.5,4.22,4.4,4.45-.15,9,.23,13.34-.41,6.75-1,6.44,3.13,6.47,7.63,0,4.31.11,8-6.14,7-3.9-.62-8,.07-11.93-.34-5.3-.56-6.64,2-6,6.58.16,1.15.18,2.33.27,3.5.92,12.28-2.92,15.16-15.13,11.82-3-.82-2.78-2.62-2.78-4.72q0-10.56,0-21.1Z"/><path class="cls-7" d="M337.16,451c-.05-2.38,1.68-2.46,3.33-2.51,3.26-.08,6.53-.12,9.79-.11,10.56,0,10.56,0,9.15,11.07-.78-8.51-6.41-9.3-13.26-8.53A84.54,84.54,0,0,1,337.16,451Z"/><path class="cls-7" d="M336.88,470.71l.43-11.3C340.87,463.32,341.3,467.11,336.88,470.71Z"/><path class="cls-14" d="M225.47,289.39c-.18,2.06-1.18,3.52-3.33,3.68-2.56.19-3.84-1.31-3.81-3.76a3.17,3.17,0,0,1,3.54-3.36C224,286,225.18,287.26,225.47,289.39Z"/><path class="cls-12" d="M286.83,293.52c-2.15-.33-3.53-1.59-3.37-3.73.18-2.41,1.75-3.88,4.27-3.5,2.15.31,3.14,1.91,2.93,4S289,293.52,286.83,293.52Z"/><path class="cls-3" d="M167.2,440.79a35.22,35.22,0,0,1,.06-5.63c.57-3.5-2.1-8.57,2-10.23A15.87,15.87,0,0,1,184,426.85c6.53,4.33,8.67,14.21,4.94,22.21-3.09,6.64-10.93,10-18.48,8.18-2.7-.64-3.28-2.11-3.25-4.47.07-4,0-8,0-12Z"/><path class="cls-4" d="M98.44,441c0-9.15,6.36-15.46,15.45-15.44,8,0,14.15,6.71,14.12,15.24,0,8.36-6.43,15.33-14.17,15.48C104.53,456.44,98.39,450.35,98.44,441Z"/></g></svg>