<svg xmlns="http://www.w3.org/2000/svg" xmlns:xlink="http://www.w3.org/1999/xlink" viewBox="0 0 500 500"><defs><style>.cls-1{fill:#fff;}.cls-2{fill:#424a56;}.cls-3{fill:#464e59;}.cls-4{fill:#404954;}.cls-5{fill:#3d4652;}.cls-6{fill:url(#linear-gradient);}</style><linearGradient id="linear-gradient" x1="-2181.46" y1="310.42" x2="-2181.46" y2="-555.33" gradientTransform="translate(984.15 234.86) scale(0.33)" gradientUnits="userSpaceOnUse"><stop offset="0" stop-color="#1ba94c"/><stop offset="1" stop-color="#32c766"/></linearGradient></defs><title>logo</title><g id="Layer_3" data-name="Layer 3"><rect class="cls-1" width="501.86" height="501.86"/><path class="cls-2" d="M310.77,421.13c0,3.61,0,7.22,0,10.83s-1.94,4.75-5.29,4.68-4.39-1.53-4.38-4.63q.06-30,0-60c0-2.87.63-5,4.08-4.84,7.76.28,15.57.06,23.26.94s12.64,5.54,14.36,13.14c2,8.82-.65,17.16-8.26,20.86-5.91,2.88-4.5,5.23-2,9.2,3.52,5.64,6.82,11.44,9.83,17.37,1.16,2.26,5.21,5.38.91,7.48-3.32,1.61-7.6,1.24-9.95-3.28-3.7-7.13-7.66-14.14-11.55-21.17a26,26,0,0,0-3.14-4.87c-1.43-1.61-3.6-1.3-5.51-1.06-2.82.35-2.26,2.72-2.31,4.53C310.7,413.9,310.77,417.51,310.77,421.13Zm.21-34.55c.28,4.62-2.37,10.76,6.89,10.07,10.65-.78,16.26-3.72,16.21-10.29s-5.28-9.17-15.43-10C309.63,375.59,310.43,380.81,311,386.58Z"/><path class="cls-3" d="M26,402.19c0-9.73,0-19.46,0-29.18,0-3.44.44-6,4.83-6,4.21,0,5.19,2.05,5.06,5.72-.15,4.72.54,9.53-.15,14.15-1.18,7.84,2.26,9.65,9.2,8.75,6.78-.88,15.86,3,19.82-1.62,3.34-3.93.94-12.69,1.21-19.31.13-3.31-1.48-7.64,4.66-7.58,5.8.06,4.94,4,4.94,7.55,0,18.34,0,36.69,0,55,0,3.82.19,7.33-5.41,7.1S66,432.68,66,429.62c-.12-6.11-.24-12.24,0-18.34.19-4.14-.83-6.07-5.46-5.82-6.65.37-13.34.26-20,0-3.7-.12-4.83,1.35-4.74,4.86.18,6.95-.08,13.9.11,20.84.1,3.89-1.3,5.59-5.29,5.49-3.72-.1-4.67-2-4.63-5.31C26.09,421.64,26,411.91,26,402.19Z"/><path class="cls-3" d="M452.67,405.44c9.59-5.62,12.75-19.68,27.24-14.92-3.69,7-10,11.13-15.19,16.13-3.75,3.62-3.75,5.8,0,9.27,5.28,4.91,10.06,10.37,15,15.64,3,3.21,2,4.69-2.16,5s-7.46-.58-10.27-4c-4-4.92-8.47-9.45-13.4-14.88-2,5-1,9.37-1.17,13.57-.11,3.16-.69,5.36-4.54,5.47-4.23.13-5.08-2.07-5.06-5.72q.12-31.28,0-62.55c0-3.54.58-5.95,4.9-5.86s4.7,2.84,4.68,6.18C452.64,380.62,452.67,392.53,452.67,405.44Z"/><path class="cls-3" d="M185.92,405.43c9.61-5.45,12.74-19.45,27.26-15.1-3.73,7-9.87,11.31-15.06,16.25-3.63,3.46-4.16,5.64-.26,9.21,5.1,4.67,9.67,9.93,14.44,15,1.11,1.18,2.82,2.36,2.18,4.17-.84,2.39-3.25,1.5-5.07,1.74-3.68.48-6.28-1.15-8.62-3.91-4.29-5.06-8.84-9.89-14.87-16.58,0,6.32-.1,10.81,0,15.28.09,3.36-1,5.21-4.71,5.21s-4.89-1.71-4.88-5.11q.06-32.06,0-64.11c0-3.54,1.63-4.95,5.11-4.89,3.8.06,4.5,2.21,4.48,5.43C185.87,380.15,185.92,392.31,185.92,405.43Z"/><path class="cls-4" d="M121.33,418.51c.24,4.14.33,8.3.78,12.42.59,5.33-3,7.44-6.28,5-3.83-2.81-5.77-.68-8.64.39-9.77,3.65-20-.75-22.5-9.5-2.63-9.4,3-17.32,14-19.48,2.71-.53,5.52-.44,8.26-.85,2-.29,5,.76,5.35-2.42.34-2.75-1.53-4.63-4-5.74-4.77-2.17-9.28-1.17-13.35,1.71-2.82,2-4.82,1.93-6.81-1.07-2.28-3.41-.08-5.16,2.34-6.65,7-4.32,14.58-5.4,22.22-2,7.43,3.31,8.89,10,8.79,17.33,0,3.6,0,7.2,0,10.8Zm-14.5-3.62c-4.74,1.18-12-.11-12.94,7.75-.58,4.82,3.74,6.33,8,6.14,6.63-.29,9.76-4.56,10.66-10.59C113.17,413.94,109.71,415.25,106.83,414.89Z"/><path class="cls-5" d="M258,415.86c-8.26,1.57-16.61.28-24.9.75-1.81.11-4.23-.92-5.27,1.15-1.16,2.27.62,4.25,1.93,6,4.72,6.2,12.31,6.52,19.56.43,2.57-2.17,4.28-2.92,7-.39,2.47,2.33,1.85,4.05,0,6.35-5.58,7-17.17,9.46-25.9,5.4-10-4.67-14.85-15.35-12.75-28.15,1.66-10.08,9.9-18,19.48-18.78,10.49-.83,18.55,4.52,21.65,14.4a23.94,23.94,0,0,1,.69,10.71Zm-21.5-5.9c5.1-.4,12.17,1.58,13.22-4.49.9-5.21-4.7-8.24-10.29-8.45s-12.63,5.13-12,9.35C228.35,412.67,233.66,408.69,236.53,410Z"/><path class="cls-4" d="M369.13,388.46c10.74,0,17.11,6.12,17.5,16.83.32,8.6.21,17.22.9,25.79.46,5.72-3.41,7.21-6.29,4.91-3.77-3-5.74-.92-8.57.24-9.45,3.87-20-.45-22.67-9.19-2.71-9,2.59-17,13.08-19.41,2.95-.68,6.06-.65,9.07-1.14,2-.32,5,.87,5.42-2.29.35-2.7-1.52-4.7-3.89-5.84-4.77-2.31-9.36-1.17-13.35,1.71-2.9,2.09-4.7,2-6.73-1-2.3-3.37-.27-5.1,2.14-6.75A22.81,22.81,0,0,1,369.13,388.46ZM372.26,415c-4.75,1.17-12-.5-12.95,7.62-.59,5.19,3.68,6.07,7.88,6,5.8-.1,10.72-5.08,10.74-10.36C377.94,414.09,375.17,415.09,372.26,415Z"/><path class="cls-5" d="M396.16,412.72c0-6.1.26-12.21-.08-18.29-.24-4.42,2.8-6.46,5.31-4.55,4.75,3.63,7.89.32,11.73-.78,9-2.6,17.64,1.93,20.13,11,3,10.87.9,22.05,1.31,33.09.11,3.11-2.47,3.1-4.75,3.24-3.41.21-4.17-1.7-4.21-4.65-.11-8.3-.41-16.6-.58-24.91-.12-5.46-2.52-9.29-8.18-9.6-5.83-.31-9.24,3.37-10.49,8.76-1.82,7.91-1,16-1.18,24-.07,2.82,1.08,6.35-3.94,6.55s-5.09-2.82-5-6.44c.13-5.82,0-11.64,0-17.46Z"/><path class="cls-4" d="M129.3,411.64c.41-8.36,3.83-16.27,12.63-20.7,7.74-3.9,15.68-3.55,22.82,1.6,2,1.45,6.14,3.16,3,7-2.39,2.91-4.77,3.35-8.35.49-5.62-4.51-12.62-3.24-16.95,2-4.55,5.47-4.62,16.16-.16,21.75,4.21,5.27,11.58,6.85,17.05,2.63,3.53-2.71,6.14-3.71,8.83.13,3.11,4.44-1.62,5.91-3.84,7.47-6.94,4.85-14.64,5-22.08,1.29C133.16,430.69,129.36,422.73,129.3,411.64Z"/><path class="cls-2" d="M268.31,412.17c0-5.83.22-11.67-.06-17.48-.23-4.94,3.17-6.62,6.15-4.81,4.25,2.58,6.93,0,10.39-.69s8.27-2.88,9.56,2.64c1.16,5-2,6.41-6.88,6.45-7.21.07-8.94,5.88-9.38,11.58-.53,6.9-.3,13.87-.23,20.8,0,3.37-.16,6-4.67,6-4.7,0-4.51-3-4.52-6.18q0-9.15,0-18.31Z"/><path class="cls-3" d="M258,415.86l1.47-2.15C259.7,414.9,259.35,415.71,258,415.86Z"/><rect class="cls-1" x="193.38" y="101.38" width="137.89" height="186.13"/><g id="Layer_2-2" data-name="Layer 2"><g id="Layer_1-2" data-name="Layer 1-2"><path class="cls-6" d="M391.88,179.7h0c-.42-26.79-2.48-50.91-6-56.89-2.89-4.94-17.52-15.46-35.66-27L301.6,67.57c-18.35-9.68-33.81-16.49-39.37-16.49-6.8,0-28.86,10.31-52.36,23.5-17.93,9.9-36.69,21.23-50.7,30.71-10.72,7.42-18.76,13.81-20.82,17.52s-3.71,14-4.53,27.83h0c-1.24,17.31-1.65,39.78-1.24,60.39.62,26.18,2.47,49.27,5.77,55,8.24,14,107.59,71.52,123.88,71.52,6.8,0,27.82-9.89,50.7-22.47,18.14-9.89,37.31-21.64,51.74-31.33h0c11.13-7.62,19.17-14,21.44-17.72s3.71-13.81,4.53-27.21h0C391.88,222,392.29,199.9,391.88,179.7Zm-71.32,75-20,18.14a3,3,0,0,1-2.48,1.24,3.34,3.34,0,0,1-2.68-1.24l-18.75-18.14a3,3,0,0,1,1.65-5.56h5.35V208.56H241v44.73a3.17,3.17,0,0,1-3.09,3.09H214a3.17,3.17,0,0,1-3.1-3.09h0V139.51h-5.56a3.17,3.17,0,0,1-3.09-3.09,3.54,3.54,0,0,1,1.44-2.68l20-18.14a3,3,0,0,1,2.48-1.24,3.34,3.34,0,0,1,2.68,1.24l18.75,18.14a3,3,0,0,1-1.65,5.56h-5.35v39h42.66V135a3.17,3.17,0,0,1,3.09-3.09h23.91a3.18,3.18,0,0,1,3.1,3.09h0V248.75h5.56a3.17,3.17,0,0,1,3.09,3.09C322,253.29,321.59,254.32,320.56,254.73Z"/></g></g></g></svg>