<svg id="Layer_1" data-name="Layer 1" xmlns="http://www.w3.org/2000/svg" viewBox="0 0 500 500"><defs><style>.cls-1{fill:#323754;}.cls-2{fill:#d6d7dc;}</style></defs><title>HackerEarthLogo</title><rect class="cls-1" x="40.98" width="364.39" height="391.53"/><path class="cls-2" d="M500,22.82v452s-2.2,21.55-24.15,24.08-445.61,0-445.61,0S3.17,496.34,1,472.88C-1.08,450.94.71,76,1,27.89A17.93,17.93,0,0,1,4.46,17.34C9,11.13,17.9,1.68,31,0h95.85V368.29l64.39-.63V197.14s4.39-39.3,62.93-43.74c0,0,56.34-2.53,55.61,53.25s1.46,164.81,1.46,164.81h62.93V211.09s0-105.23-111.22-103.33c0,0-33.66-5.07-71.71,28.53V0H474.39S494.15,3.17,500,22.82Z" transform="translate(0)"/><rect class="cls-1" x="96.1" y="408.86" width="309.27" height="25.78"/></svg>