<svg id="Layer_1" data-name="Layer 1" xmlns="http://www.w3.org/2000/svg" viewBox="0 0 500 500"><defs><style>.cls-1{fill:#fdfdfd;}.cls-2{fill:#8ec547;}.cls-3{fill:#0c76ba;}.cls-4{fill:#fdf005;}.cls-5{fill:#2daadf;}.cls-6{fill:#f59627;}.cls-7{fill:#6c6c6e;}.cls-8{fill:#6f6f71;}.cls-9{fill:#6b6b6d;}.cls-10{fill:#6d6d6f;}.cls-11{fill:#747475;}.cls-12{fill:#676769;}.cls-13{fill:#f8f8f8;}.cls-14{fill:#f7f7f7;}.cls-15{fill:#f1f1f1;}</style></defs><title>logo</title><path class="cls-1" d="M.7,250.62Q.7,128.46.59,6.32c0-4.13.62-5.2,5-5.2q244.94.22,489.85,0c4.74,0,5.33,1.26,5.33,5.54q-.18,244.61,0,489.22c0,4.31-.65,5.52-5.35,5.52q-244.92-.25-489.84,0c-4.46,0-5-1.12-5-5.21Q.81,373.4.7,250.62ZM492.9,266c.09-2,.3-4.11.22-6.15-.05-1.46,1-3.76-1.35-4.08-2.74-.37-2.21,2.31-2.76,3.91-4.11-4.58-9.59-5.75-15.07-4.39-7.08,1.76,2.29,5.06-.23,8-.93,1.1.19,3.87,2.69,3.86,1.57,0,1.47-1.64,1.69-2.87.32-1.76-1.08-4.2,1.68-5.16,1.45,1.32.76,2.89,1.06,4.24.34,1.58-1.06,4.79,1.7,4.33C486,267.15,490.16,270.43,492.9,266ZM334.61,231.58c4.81,1.4,8.77-.87,11.77-3.91,8.8-8.93,16.37-18.83,20.26-31,3.79-11.85-.27-20.62-12.08-24.72-17.52-6.06-35.17-3.4-52.74.28-3.29-2.85-6.36-6-9.9-8.52-21-14.89-43.15-25.43-70.09-18.77-18.59,4.6-34.74,13.22-48.12,26.94-15.6-2.17-31-4.92-47-2-16.38,3-23.5,13.71-17.74,29.13,4.14,11.12,11.13,20.4,19.43,28.7,3.33,3.32,7.45,5.25,12.42,4.06,10,.51,17.46-5.69,25.55-9.93,22.17-11.62,44.22-23.42,68.64-29.82l4.43-.29c2.74.85,5.49,1.69,8.22,2.57,24.56,7.87,47,20.3,69.6,32.39C322.63,229.6,327.93,233.17,334.61,231.58ZM130,315.42c0,11,0,22.05,0,33.07,0,2.58-.87,5.57,3.69,5.4,4.38-.18,3.56-3.08,3.58-5.68,0-4.58.13-9.16,0-13.73-.18-5,.78-6.41,5.87-3.48,14.51,8.36,30,2.12,35.64-13.6,2.12-5.92,2.19-11.93,1.54-17.85-2.35-21.46-23.85-30.19-38.71-19.06-1.88,1.41-3.34,2.49-4.55-.81-.83-2.26-3.14-2.82-5.26-2.15-2.32.73-1.76,3-1.76,4.83C130,293.38,130,304.4,130,315.42Zm225.4-20.08q0-17.14,0-34.29c0-2.34,0-5-3.3-4.9-3,.06-3.47,2.38-3.46,4.88,0,5.82.06,11.64,0,17.46,0,1.18,0,2.85-.67,3.44-1.48,1.24-2.6-.52-3.69-1.3-6.66-4.73-13.86-6.55-21.71-3.7-12.82,4.66-19.49,17.3-17.56,32.82,2.74,22.09,21,31.29,39.56,20,1.61-1,3.39-2.67,4,.68.52,2.69,2,3.48,4.42,3,2.91-.58,2.37-3,2.38-5C355.43,317.38,355.41,306.36,355.41,295.34Zm42.35,12.59c6,0,12.07-.06,18.1,0,2.82,0,5.22-.57,5.19-3.87-.18-20-16.67-32.72-33.94-27.12-17.91,5.81-25.44,27.67-15.85,44,8.56,14.62,31.11,18.48,43.4,7.35,1.52-1.38,4-2.67,1.53-5.53-2-2.32-3.52-1.21-5.24.18a21.54,21.54,0,0,1-2.59,1.72c-13.2,7.77-27.47,2.41-32-11.82-1.15-3.58-.57-5.06,3.35-5C385.7,308,391.73,307.92,397.76,307.93ZM296.47,304.5c.59-5-1.07-10.11-3.71-14.87-5.78-10.43-17.32-15.9-28.3-13.66-11.36,2.33-19.92,11.78-21.54,23.78-1.91,14.09,3.73,26.89,14.09,32C276.43,341.35,296.53,327.79,296.47,304.5Zm-178.57.83c1.5-18-13.24-29.41-24.87-29.55-12.29-.14-21.73,5.58-26.25,16.16-4.88,11.41-2.65,26.65,5,34.46s20.34,10.63,29.81,6.27C113,327.44,118.33,318.29,117.9,305.33ZM216,275.79a26.56,26.56,0,0,0-7.39.84c-20.49,6-25.08,31.22-15,46.16,9,13.24,28.37,15.92,39.22,5.5,1.58-1.52,4.44-2.88,1.34-5.9-2.71-2.63-4.27-1.06-6.25.76-5.84,5.34-12.38,6.25-19.6,2.93-8.19-3.78-11.44-10.91-11.91-19.1-.5-8.85,1.77-17.19,10.47-21.73,7.67-4,15.26-3.63,21.86,2.53,2.22,2.07,3.86,1.93,5.75-.24s1-3.69-.88-5.2C228.49,278.18,222.87,275.33,216,275.79ZM39.66,306.16c0,5.61-.07,11.22,0,16.83.14,9.69,9.87,15.22,18.18,10.38,2-1.2,2.89-2.91,2.19-5.24s-2.29-2.36-4.41-1.73c-6.83,2-8.32.83-8.36-6.49-.06-9.77.29-19.56-.13-29.31-.23-5.27.92-7.92,6.71-7.08,2.08.31,4.47.09,4.46-2.9,0-2.66-2-3.75-4.26-3.37-6.55,1.06-7.28-2.68-6.81-7.71a20.4,20.4,0,0,0-.09-4.35c-.29-2.29-1.88-3-4-3s-3.47,1.15-3.5,3.44c0,2.08,0,4.16,0,6.23.12,3.41-.78,5.62-4.87,5.4-2.23-.12-4.93.07-5,3.3-.06,3.6,2.94,3,5,2.94,3.91-.19,5,1.5,4.9,5.2C39.49,294.51,39.66,300.34,39.66,306.16Zm392.85-.67q0,11.52,0,23.05c0,2.55-.24,5.13,3.69,4.94,3.48-.16,4-2.18,3.94-5-.06-8.93,0-17.86,0-26.79,0-11.72,3.18-15.94,14.67-18.07,3.88-.71,3.49-2.87,3.11-5.32-.48-3.13-2.7-2.6-4.77-1.82-3.29,1.24-6.59,2.43-9.2,5-1.51,1.5-3.36,2.45-3.77-.85s-2.87-3.1-5.1-2.94c-3.12.22-2.53,2.74-2.54,4.73C432.48,290.12,432.5,297.81,432.51,305.49Z"/><path class="cls-2" d="M239.44,191.76l-4.43.29c-1.95-2.73-5.14-3.25-7.95-4.33a292,292,0,0,0-53.52-14.87.71.71,0,0,0,.16-1c13.39-13.73,29.54-22.35,48.13-26.95,26.94-6.66,49.08,3.88,70.09,18.77,3.54,2.51,6.61,5.67,9.9,8.52v.36c-10.62,2.51-21.39,4.52-31.82,7.68S249,186.21,239.44,191.76Z"/><path class="cls-3" d="M173.54,172.85a292,292,0,0,1,53.52,14.87c2.81,1.08,6,1.6,7.95,4.33-24.42,6.4-46.47,18.2-68.64,29.82-8.09,4.24-15.56,10.44-25.55,9.93.09-2.47-.34-5.11.36-7.39A119.77,119.77,0,0,1,157,190.93C161.61,184.24,166.14,177.14,173.54,172.85Z"/><path class="cls-4" d="M239.44,191.76c9.54-5.55,20.17-8.33,30.57-11.49s21.2-5.17,31.82-7.68c6.9,7.14,13.87,14.2,18.82,22.95,6.42,11.34,12.61,22.75,14,36-6.68,1.59-12-2-17.35-4.86-22.6-12.09-45-24.52-69.6-32.39C244.93,193.45,242.18,192.61,239.44,191.76Z"/><path class="cls-5" d="M173.54,172.85c-7.4,4.29-11.93,11.39-16.57,18.08a119.77,119.77,0,0,0-15.79,33.48c-.7,2.28-.27,4.92-.36,7.39-5,1.19-9.09-.74-12.42-4.06-8.3-8.3-15.29-17.58-19.43-28.7-5.76-15.42,1.36-26.11,17.74-29.13,16-2.95,31.4-.2,47,2A.72.72,0,0,1,173.54,172.85Z"/><path class="cls-6" d="M334.61,231.58c-1.35-13.29-7.54-24.7-14-36-4.95-8.75-11.92-15.81-18.82-22.95v-.36c17.57-3.68,35.22-6.34,52.74-.28,11.81,4.1,15.87,12.87,12.08,24.72-3.89,12.17-11.46,22.07-20.26,31C343.38,230.71,339.42,233,334.61,231.58Z"/><path class="cls-7" d="M130,315.42c0-11,0-22,0-33.06,0-1.81-.56-4.1,1.76-4.83,2.12-.67,4.43-.11,5.26,2.15,1.21,3.3,2.67,2.22,4.55.81,14.86-11.13,36.36-2.4,38.71,19.06.65,5.92.58,11.93-1.54,17.85-5.62,15.72-21.13,22-35.64,13.6-5.09-2.93-6.05-1.51-5.87,3.48.17,4.57.06,9.15,0,13.73,0,2.6.8,5.5-3.58,5.68-4.56.17-3.69-2.82-3.69-5.4C130,337.47,130,326.45,130,315.42Zm6.83-10c.62,4.14-1.61,9.48,1.1,13.92,3.72,6.1,10.05,8.87,16.9,8.84a16.37,16.37,0,0,0,15.09-9.38,28.86,28.86,0,0,0,.3-26.38c-3.78-7.89-11.8-11.22-20.91-9s-12.49,6.68-12.48,16.27Z"/><path class="cls-8" d="M355.41,295.34c0,11,0,22,0,33.05,0,2,.53,4.43-2.38,5-2.4.48-3.9-.31-4.42-3-.63-3.35-2.41-1.66-4-.68-18.6,11.32-36.82,2.12-39.56-20-1.93-15.52,4.74-28.16,17.56-32.82,7.85-2.85,15.05-1,21.71,3.7,1.09.78,2.21,2.54,3.69,1.3.7-.59.66-2.26.67-3.44.06-5.82,0-11.64,0-17.46,0-2.5.42-4.82,3.46-4.88,3.28-.07,3.29,2.56,3.3,4.9Q355.43,278.2,355.41,295.34Zm-6.72,10.88c0-2.66-.26-4.58.05-6.4,1.29-7.67-2.58-12.22-9-15.24s-12.87-2.89-18.86,1.32c-7.17,5-9.84,16.38-7.23,27.26,3.64,15.16,19.89,20,32,8.81C351,317.12,347.64,310.93,348.69,306.22Z"/><path class="cls-8" d="M397.76,307.93c-6,0-12.06.08-18.09,0-3.92-.07-4.5,1.41-3.35,5,4.57,14.23,18.84,19.59,32,11.82A21.54,21.54,0,0,0,411,323c1.72-1.39,3.2-2.5,5.24-.18,2.5,2.86,0,4.15-1.53,5.53-12.29,11.13-34.84,7.27-43.4-7.35-9.59-16.35-2.06-38.21,15.85-44,17.27-5.6,33.76,7.09,33.94,27.12,0,3.3-2.37,3.91-5.19,3.87C409.83,307.87,403.79,307.93,397.76,307.93Zm-3.31-5.73c4.56,0,9.13-.13,13.69,0,5.27.2,5.93-2.35,4.54-6.68a18.84,18.84,0,0,0-18.93-13.21c-8.42.3-16.17,7-18,15.4-.71,3.28.35,4.61,3.76,4.5C384.48,302.08,389.47,302.2,394.45,302.2Z"/><path class="cls-9" d="M296.47,304.5c.06,23.29-20,36.85-39.46,27.26-10.36-5.12-16-17.92-14.09-32,1.62-12,10.18-21.45,21.54-23.78,11-2.24,22.52,3.23,28.3,13.66C295.4,294.39,297.06,299.51,296.47,304.5Zm-7.64,1.11C288.88,289,275.57,278,262.39,284c-8.09,3.7-11.84,10.64-12.06,19.52-.23,9.47,1.81,17.89,11,22.62C274.74,333,288.77,322.43,288.83,305.61Z"/><path class="cls-7" d="M117.9,305.33c.43,13-5,22.11-16.28,27.34-9.47,4.36-22.24,1.43-29.81-6.27s-9.91-23-5-34.46c4.52-10.58,14-16.3,26.25-16.16C104.66,275.92,119.4,287.33,117.9,305.33ZM72,305.38c0,12,6.37,20.75,16.4,22.46,9,1.53,17.36-3.53,20.62-13.17,2.69-7.93,2.56-16-2.19-23.31-4.92-7.59-12.68-10.39-21-8S72,294.32,72,305.38Z"/><path class="cls-10" d="M216,275.79c6.87-.46,12.49,2.39,17.65,6.55,1.87,1.51,2.77,3,.88,5.2s-3.53,2.31-5.75.24c-6.6-6.16-14.19-6.53-21.86-2.53-8.7,4.54-11,12.88-10.47,21.73.47,8.19,3.72,15.32,11.91,19.1,7.22,3.32,13.76,2.41,19.6-2.93,2-1.82,3.54-3.39,6.25-.76,3.1,3,.24,4.38-1.34,5.9-10.85,10.42-30.26,7.74-39.22-5.5-10.12-14.94-5.53-40.14,15-46.16A26.56,26.56,0,0,1,216,275.79Z"/><path class="cls-11" d="M39.66,306.16c0-5.82-.17-11.65.06-17.46.15-3.7-1-5.39-4.9-5.2-2.07.1-5.07.66-5-2.94.06-3.23,2.76-3.42,5-3.3,4.09.22,5-2,4.87-5.4-.07-2.07,0-4.15,0-6.23,0-2.29,1.23-3.41,3.5-3.44s3.71.71,4,3a20.4,20.4,0,0,1,.09,4.35c-.47,5,.26,8.77,6.81,7.71,2.29-.38,4.25.71,4.26,3.37,0,3-2.38,3.21-4.46,2.9-5.79-.84-6.94,1.81-6.71,7.08.42,9.75.07,19.54.13,29.31,0,7.32,1.53,8.5,8.36,6.49,2.12-.63,3.68-.7,4.41,1.73s-.14,4-2.19,5.24c-8.31,4.84-18-.69-18.18-10.38C39.59,317.38,39.66,311.77,39.66,306.16Z"/><path class="cls-12" d="M432.51,305.49c0-7.68,0-15.37,0-23.05,0-2-.58-4.51,2.54-4.73,2.23-.16,4.68-.49,5.1,2.94s2.26,2.35,3.77.85c2.61-2.58,5.91-3.77,9.2-5,2.07-.78,4.29-1.31,4.77,1.82.38,2.45.77,4.61-3.11,5.32-11.49,2.13-14.67,6.35-14.67,18.07,0,8.93,0,17.86,0,26.79,0,2.81-.46,4.83-3.94,5-3.93.19-3.69-2.39-3.69-4.94Q432.5,317,432.51,305.49Z"/><path class="cls-13" d="M136.84,305.39v-5.74c0-9.59,3.44-14.09,12.48-16.27s17.13,1.12,20.91,9a28.86,28.86,0,0,1-.3,26.38,16.37,16.37,0,0,1-15.09,9.38c-6.85,0-13.18-2.74-16.9-8.84C135.23,314.87,137.46,309.53,136.84,305.39Z"/><path class="cls-14" d="M348.69,306.22c-1.05,4.71,2.26,10.9-3,15.75-12.15,11.17-28.4,6.35-32-8.81-2.61-10.88.06-22.23,7.23-27.26,6-4.21,12.36-4.37,18.86-1.32s10.3,7.57,9,15.24C348.43,301.64,348.69,303.56,348.69,306.22Z"/><path class="cls-15" d="M394.45,302.2c-5,0-10-.12-14.94,0-3.41.11-4.47-1.22-3.76-4.5,1.83-8.41,9.58-15.1,18-15.4a18.84,18.84,0,0,1,18.93,13.21c1.39,4.33.73,6.88-4.54,6.68C403.58,302.07,399,302.2,394.45,302.2Z"/><path class="cls-14" d="M288.83,305.61c-.06,16.82-14.09,27.36-27.47,20.49-9.22-4.73-11.26-13.15-11-22.62.22-8.88,4-15.82,12.06-19.52C275.57,278,288.88,289,288.83,305.61Z"/><path class="cls-13" d="M72,305.38c0-11.06,5.34-19.55,13.81-22s16.1.39,21,8c4.75,7.3,4.88,15.38,2.19,23.31-3.26,9.64-11.66,14.7-20.62,13.17C78.34,326.13,72,317.4,72,305.38Z"/></svg>